<?xml version="1.0" encoding="UTF-8" standalone="no"?>
<!-- Created with Inkscape (http://www.inkscape.org/) -->

<svg
   width="23.558826mm"
   height="36.750408mm"
   viewBox="0 0 23.558826 36.750408"
   version="1.1"
   id="svg5"
   inkscape:version="1.2.2 (b0a8486541, 2022-12-01)"
   sodipodi:docname="app upgrade.svg"
   xmlns:inkscape="http://www.inkscape.org/namespaces/inkscape"
   xmlns:sodipodi="http://sodipodi.sourceforge.net/DTD/sodipodi-0.dtd"
   xmlns="http://www.w3.org/2000/svg"
   xmlns:svg="http://www.w3.org/2000/svg">
  <sodipodi:namedview
     id="namedview7"
     pagecolor="#ffffff"
     bordercolor="#666666"
     borderopacity="1.0"
     inkscape:showpageshadow="2"
     inkscape:pageopacity="0.0"
     inkscape:pagecheckerboard="0"
     inkscape:deskcolor="#d1d1d1"
     inkscape:document-units="mm"
     showgrid="false"
     showguides="true"
     inkscape:zoom="1.5500842"
     inkscape:cx="97.091503"
     inkscape:cy="-31.611187"
     inkscape:window-width="1920"
     inkscape:window-height="1002"
     inkscape:window-x="0"
     inkscape:window-y="1112"
     inkscape:window-maximized="1"
     inkscape:current-layer="layer1">
    <sodipodi:guide
       position="11.273889,-8.2739255e-07"
       orientation="1,0"
       id="guide335"
       inkscape:locked="false" />
    <sodipodi:guide
       position="14.704557,29.010528"
       orientation="0,-1"
       id="guide2398"
       inkscape:locked="false" />
  </sodipodi:namedview>
  <defs
     id="defs2" />
  <g
     inkscape:label="Шар 1"
     inkscape:groupmode="layer"
     id="layer1"
     transform="translate(-87.559185,-64.658321)">
    <path
       style="fill:#008000;stroke:none;stroke-width:0.264583px;stroke-linecap:butt;stroke-linejoin:miter;stroke-opacity:1"
       d="M 101.33515,101.40873 H 96.331185 V 72.473 c 0,-0.73924 -5.580524,5.03566 -6.121185,5.576321 -0.540661,0.540661 -2.877129,0.105761 -2.633,-1.52 0.244129,-1.62579 8.754185,-9.595184 8.754185,-9.595184 0,0 2.062077,-1.741066 2.501056,-1.741066 0.438979,0 2.502939,1.791463 2.502939,1.791463 0,0 9.97047,8.092434 9.77999,9.544787 -0.19048,1.452353 -1.76845,2.272969 -2.52142,1.52 -0.75297,-0.752969 -7.26293,-6.089487 -7.25857,-5.585765 0.004,0.503722 0,28.945174 0,28.945174 z"
       id="path294"
       sodipodi:nodetypes="cczzzccczzzcc" />
  </g>
</svg>
